<svg width="20" height="20" viewBox="0 0 20 20" fill="none" xmlns="http://www.w3.org/2000/svg">
<g clip-path="url(#clip0_73_11)">
<path d="M5.70796 8.32469C5.70796 8.54787 5.70796 8.76915 5.70796 8.98854C5.70796 9.20793 5.69661 9.42921 5.67392 9.65239C5.63231 10.1252 5.53018 10.5735 5.36753 10.9971C5.20487 11.417 4.98359 11.7858 4.70368 12.1035C4.42755 12.4213 4.09089 12.6728 3.69372 12.8582C3.29655 13.0435 2.84074 13.1362 2.32631 13.1362C2.12583 13.1362 1.91589 13.1192 1.6965 13.0851C1.48089 13.0511 1.26528 13 1.04967 12.9319C0.837849 12.8638 0.633588 12.7806 0.436892 12.6823C0.243978 12.5801 0.0718696 12.4629 -0.0794349 12.3305L0.272348 9.98148C0.495522 10.1971 0.743283 10.373 1.01563 10.5092C1.28798 10.6415 1.58491 10.7077 1.90644 10.7077C2.11448 10.7077 2.29037 10.6775 2.43411 10.617C2.57785 10.5564 2.697 10.4732 2.79157 10.3673C2.88613 10.2614 2.95989 10.1385 3.01285 9.9985C3.06959 9.85476 3.10931 9.70345 3.132 9.54458C3.15848 9.38193 3.17361 9.2155 3.17739 9.04528C3.18496 8.87506 3.18874 8.70674 3.18874 8.5403C3.18874 7.93887 3.15848 7.34121 3.09796 6.74734C3.03744 6.14969 2.98448 5.55204 2.93909 4.95438L5.53774 4.78417C5.65122 5.96434 5.70796 7.14452 5.70796 8.32469ZM12.6415 8.49491C12.6415 9.02447 12.5734 9.49919 12.4372 9.91906C12.3011 10.3389 12.11 10.7115 11.8642 11.0368C11.6221 11.3583 11.3327 11.6326 10.9961 11.8595C10.6594 12.0865 10.2906 12.2737 9.88964 12.4213C9.48868 12.565 9.06125 12.6709 8.60733 12.739C8.1572 12.8071 7.69383 12.8411 7.21722 12.8411C7.03944 12.8411 6.86544 12.8373 6.69522 12.8298C6.52501 12.8184 6.35101 12.8033 6.17322 12.7844L6.33209 5.39695C6.74818 5.26456 7.17561 5.17188 7.6144 5.11893C8.05696 5.06219 8.49575 5.03382 8.93075 5.03382C9.47166 5.03382 9.96907 5.10947 10.423 5.26078C10.8769 5.41208 11.2684 5.63525 11.5975 5.9303C11.9266 6.22156 12.1819 6.5828 12.3635 7.01402C12.5488 7.44145 12.6415 7.93508 12.6415 8.49491ZM8.78322 10.6737C9.01018 10.6397 9.21633 10.5716 9.40168 10.4694C9.59081 10.3635 9.75346 10.2349 9.88964 10.0836C10.0258 9.92852 10.1298 9.75452 10.2017 9.56161C10.2774 9.36491 10.3152 9.15687 10.3152 8.93747C10.3152 8.72187 10.2925 8.52139 10.2471 8.33604C10.2017 8.14691 10.1279 7.98426 10.0258 7.84808C9.92368 7.70813 9.7894 7.59843 9.62296 7.519C9.45653 7.43578 9.25227 7.39039 9.01018 7.38282L8.78322 10.6737ZM19.4275 8.49491C19.4275 9.02447 19.3594 9.49919 19.2232 9.91906C19.0871 10.3389 18.896 10.7115 18.6502 11.0368C18.4081 11.3583 18.1187 11.6326 17.7821 11.8595C17.4454 12.0865 17.0766 12.2737 16.6756 12.4213C16.2747 12.565 15.8473 12.6709 15.3933 12.739C14.9432 12.8071 14.4798 12.8411 14.0032 12.8411C13.8254 12.8411 13.6514 12.8373 13.4812 12.8298C13.311 12.8184 13.137 12.8033 12.9592 12.7844L13.1181 5.39695C13.5342 5.26456 13.9616 5.17188 14.4004 5.11893C14.843 5.06219 15.2818 5.03382 15.7168 5.03382C16.2577 5.03382 16.7551 5.10947 17.209 5.26078C17.6629 5.41208 18.0544 5.63525 18.3835 5.9303C18.7126 6.22156 18.9679 6.5828 19.1495 7.01402C19.3348 7.44145 19.4275 7.93508 19.4275 8.49491ZM15.5692 10.6737C15.7962 10.6397 16.0023 10.5716 16.1877 10.4694C16.3768 10.3635 16.5395 10.2349 16.6756 10.0836C16.8118 9.92852 16.9158 9.75452 16.9877 9.56161C17.0634 9.36491 17.1012 9.15687 17.1012 8.93747C17.1012 8.72187 17.0785 8.52139 17.0331 8.33604C16.9877 8.14691 16.9139 7.98426 16.8118 7.84808C16.7097 7.70813 16.5754 7.59843 16.409 7.519C16.2425 7.43578 16.0383 7.39039 15.7962 7.38282L15.5692 10.6737Z" fill="#FBD53E"/>
<path d="M5.89938 15.0962C5.89938 15.2574 5.87113 15.3969 5.81464 15.5146C5.75933 15.6311 5.68284 15.7276 5.58517 15.8041C5.48867 15.8794 5.37511 15.9353 5.24448 15.9718C5.11503 16.0071 4.97558 16.0247 4.82612 16.0247C4.76846 16.0247 4.70491 16.0171 4.63548 16.0018C4.56722 15.9865 4.49779 15.9676 4.42718 15.9453C4.35657 15.9217 4.28832 15.897 4.22242 15.8711C4.15769 15.8441 4.10003 15.8188 4.04943 15.7952L4.1271 15.1033C4.22712 15.1633 4.33775 15.2092 4.45896 15.241C4.58135 15.2716 4.70138 15.2869 4.81906 15.2869C4.84142 15.2869 4.86849 15.2863 4.90026 15.2851C4.93204 15.2827 4.96204 15.2774 4.99029 15.2692C5.01971 15.2598 5.04442 15.2463 5.06443 15.2286C5.08443 15.2109 5.09444 15.1856 5.09444 15.1527C5.09444 15.1303 5.08737 15.1115 5.07325 15.0962C5.05913 15.0797 5.04089 15.0668 5.01853 15.0574C4.99617 15.0468 4.97087 15.0391 4.94263 15.0344C4.91438 15.0285 4.88673 15.0244 4.85966 15.0221C4.83259 15.0197 4.80729 15.0185 4.78376 15.0185C4.76022 15.0185 4.74139 15.0185 4.72727 15.0185C4.62606 15.0185 4.53368 15.0027 4.45013 14.9709C4.36775 14.9391 4.29656 14.8944 4.23654 14.8367C4.1777 14.7779 4.1318 14.7073 4.09885 14.6249C4.0659 14.5413 4.04943 14.449 4.04943 14.3478C4.04943 14.2089 4.07708 14.0847 4.13239 13.9753C4.18888 13.8647 4.26361 13.7711 4.35657 13.6946C4.45072 13.617 4.5584 13.5575 4.67961 13.5163C4.80082 13.4751 4.92615 13.4546 5.0556 13.4546C5.11326 13.4546 5.17269 13.4569 5.23389 13.4616C5.29508 13.4651 5.35569 13.4722 5.41571 13.4828C5.4769 13.4934 5.53633 13.5069 5.59399 13.5234C5.65166 13.5399 5.70638 13.5605 5.75816 13.5852L5.69108 14.3019C5.61106 14.2748 5.52691 14.2524 5.43865 14.2348C5.35157 14.216 5.26625 14.2065 5.1827 14.2065C5.1674 14.2065 5.14739 14.2071 5.12268 14.2083C5.09914 14.2083 5.07384 14.2101 5.04677 14.2136C5.02088 14.216 4.99441 14.2201 4.96734 14.226C4.94027 14.2318 4.91615 14.2401 4.89497 14.2507C4.87378 14.2601 4.85672 14.273 4.84377 14.2895C4.83083 14.306 4.82495 14.3254 4.82612 14.3478C4.8273 14.3736 4.83671 14.3937 4.85437 14.4078C4.87319 14.4219 4.89673 14.4325 4.92497 14.4395C4.95439 14.4454 4.98617 14.4484 5.0203 14.4484C5.0556 14.4484 5.09032 14.4478 5.12444 14.4466C5.15857 14.4443 5.19035 14.4425 5.21977 14.4413C5.24919 14.439 5.27331 14.4384 5.29214 14.4395C5.38629 14.4454 5.47102 14.4654 5.54633 14.4996C5.62165 14.5337 5.6852 14.579 5.73698 14.6355C5.78993 14.692 5.82994 14.7596 5.85701 14.8385C5.88525 14.9162 5.89938 15.0021 5.89938 15.0962ZM7.84112 13.511L7.82346 14.2595L7.29743 14.2807L7.23388 15.9188L6.48896 15.9576L6.42188 14.3195L5.89585 14.3478L5.91703 13.5146L7.84112 13.511ZM10.0459 13.5146C9.99292 13.9288 9.94761 14.3413 9.90995 14.752C9.87229 15.1615 9.8364 15.574 9.80227 15.9894L9.07853 16.0424L9.11031 15.7705C9.08677 15.7976 9.05912 15.8211 9.02734 15.8411C8.99675 15.8611 8.9638 15.8776 8.92849 15.8906C8.89319 15.9023 8.85671 15.9112 8.81905 15.917C8.78139 15.9217 8.7455 15.9235 8.71137 15.9223C8.63135 15.9212 8.55603 15.9059 8.48542 15.8764C8.41481 15.8458 8.35009 15.8058 8.29125 15.7564C8.23241 15.7058 8.17945 15.6475 8.13238 15.5816C8.0853 15.5146 8.04529 15.4445 8.01234 15.3716C7.98057 15.2974 7.95586 15.2221 7.9382 15.1456C7.92173 15.0691 7.91349 14.995 7.91349 14.9232C7.91349 14.8173 7.91526 14.7079 7.91879 14.5949C7.92349 14.4807 7.93114 14.3666 7.94173 14.2524C7.95232 14.1383 7.96586 14.0253 7.98233 13.9135C7.99999 13.8017 8.02176 13.6946 8.04765 13.5922C8.19122 13.5993 8.33538 13.6058 8.48013 13.6117C8.62487 13.6175 8.76903 13.6193 8.9126 13.617C8.88554 13.7193 8.85847 13.8223 8.8314 13.9259C8.80551 14.0283 8.78198 14.1318 8.7608 14.2365C8.73961 14.3401 8.72255 14.4443 8.7096 14.549C8.69666 14.6537 8.69019 14.7596 8.69019 14.8667C8.69019 14.8914 8.69136 14.9267 8.69372 14.9726C8.69607 15.0185 8.70195 15.0638 8.71137 15.1086C8.72196 15.1533 8.73726 15.1927 8.75726 15.2268C8.77845 15.2598 8.80787 15.2763 8.84553 15.2763C8.89024 15.2763 8.93026 15.2574 8.96556 15.2198C9.00086 15.1809 9.03205 15.1292 9.05912 15.0644C9.08618 14.9997 9.10913 14.925 9.12796 14.8403C9.14797 14.7555 9.16444 14.6673 9.17739 14.5755C9.19151 14.4825 9.20269 14.3889 9.21093 14.2948C9.21916 14.2007 9.22505 14.1124 9.22858 14.03C9.23329 13.9465 9.23623 13.8717 9.2374 13.8058C9.23976 13.7399 9.24093 13.6887 9.24093 13.6523C9.24093 13.6287 9.24035 13.6058 9.23917 13.5834C9.23799 13.5611 9.23623 13.5381 9.23387 13.5146C9.31037 13.5169 9.38627 13.5187 9.46159 13.5199C9.5369 13.521 9.61281 13.5216 9.6893 13.5216C9.74814 13.5216 9.80698 13.5216 9.86582 13.5216C9.92584 13.5205 9.98586 13.5181 10.0459 13.5146ZM12.1518 14.5984C12.1518 14.7632 12.1306 14.9109 12.0882 15.0415C12.0459 15.1721 11.9864 15.288 11.9099 15.3892C11.8346 15.4893 11.7446 15.5746 11.6399 15.6452C11.5351 15.7158 11.4204 15.7741 11.2956 15.8199C11.1709 15.8647 11.0379 15.8976 10.8967 15.9188C10.7567 15.94 10.6125 15.9506 10.4642 15.9506C10.4089 15.9506 10.3548 15.9494 10.3018 15.947C10.2489 15.9435 10.1947 15.9388 10.1394 15.9329L10.1889 13.6346C10.3183 13.5934 10.4513 13.5646 10.5878 13.5481C10.7255 13.5305 10.862 13.5216 10.9973 13.5216C11.1656 13.5216 11.3204 13.5452 11.4616 13.5922C11.6028 13.6393 11.7246 13.7087 11.827 13.8005C11.9294 13.8912 12.0088 14.0035 12.0653 14.1377C12.1229 14.2707 12.1518 14.4242 12.1518 14.5984ZM10.9514 15.2763C11.022 15.2657 11.0862 15.2445 11.1438 15.2127C11.2027 15.1798 11.2533 15.1398 11.2956 15.0927C11.338 15.0444 11.3704 14.9903 11.3927 14.9303C11.4163 14.8691 11.428 14.8044 11.428 14.7361C11.428 14.669 11.421 14.6067 11.4069 14.549C11.3927 14.4901 11.3698 14.4395 11.338 14.3972C11.3062 14.3536 11.2645 14.3195 11.2127 14.2948C11.1609 14.2689 11.0974 14.2548 11.022 14.2524L10.9514 15.2763ZM13.1844 13.5146L13.0609 15.9188L12.3159 15.9576L12.2453 13.564L13.1844 13.5146ZM15.4933 14.6478C15.4933 14.7549 15.481 14.8585 15.4563 14.9585C15.4316 15.0574 15.3957 15.1503 15.3486 15.2374C15.3027 15.3245 15.2462 15.4045 15.1791 15.4775C15.1132 15.5493 15.0385 15.6111 14.9549 15.6628C14.8726 15.7146 14.7825 15.7552 14.6849 15.7846C14.5872 15.8129 14.4836 15.827 14.3742 15.827C14.2683 15.827 14.1671 15.8135 14.0706 15.7864C13.9753 15.7593 13.8858 15.7217 13.8023 15.6734C13.7187 15.624 13.6428 15.5652 13.5745 15.4969C13.5075 15.4275 13.4498 15.351 13.4016 15.2674C13.3545 15.1827 13.3174 15.0921 13.2903 14.9956C13.2645 14.8991 13.2515 14.7985 13.2515 14.6937C13.2515 14.5914 13.2639 14.4913 13.2886 14.3937C13.3133 14.2948 13.3486 14.2018 13.3945 14.1147C13.4416 14.0277 13.4981 13.9476 13.564 13.8747C13.6299 13.8017 13.7034 13.7388 13.7846 13.6858C13.867 13.6328 13.9558 13.5917 14.0512 13.5622C14.1465 13.5328 14.2471 13.5181 14.353 13.5181C14.5236 13.5181 14.679 13.5446 14.819 13.5975C14.9602 13.6505 15.0803 13.7264 15.1791 13.8253C15.2792 13.9229 15.3562 14.0418 15.4104 14.1818C15.4657 14.3207 15.4933 14.476 15.4933 14.6478ZM14.7096 14.6937C14.7096 14.6431 14.7019 14.5943 14.6866 14.5472C14.6725 14.499 14.6513 14.4566 14.6231 14.4201C14.5948 14.3825 14.5595 14.3525 14.5172 14.3301C14.476 14.3066 14.4283 14.2948 14.3742 14.2948C14.3189 14.2948 14.2695 14.3048 14.2259 14.3248C14.1824 14.3448 14.1447 14.3725 14.1129 14.4078C14.0823 14.4419 14.0588 14.4825 14.0423 14.5296C14.0259 14.5755 14.0176 14.6243 14.0176 14.6761C14.0176 14.7255 14.0247 14.7749 14.0388 14.8244C14.0529 14.8738 14.0741 14.9185 14.1023 14.9585C14.1306 14.9985 14.1653 15.0309 14.2065 15.0556C14.2489 15.0803 14.2977 15.0927 14.353 15.0927C14.4083 15.0927 14.4577 15.0821 14.5013 15.0609C14.546 15.0385 14.5837 15.0091 14.6143 14.9726C14.6449 14.935 14.6684 14.892 14.6849 14.8438C14.7013 14.7955 14.7096 14.7455 14.7096 14.6937Z" fill="#FBD53E"/>
</g>
<defs>
<clipPath id="clip0_73_11">
<rect width="20" height="20" fill="white"/>
</clipPath>
</defs>
</svg>
