<svg width="17" height="15" viewBox="0 0 17 15" fill="none" xmlns="http://www.w3.org/2000/svg">
<path d="M1.5649 14.3856C1.23543 14.3856 0.947763 14.3684 0.701894 14.334C0.451106 14.3045 0.234741 14.2701 0.0527972 14.2307V11.9663C0.210154 11.9958 0.377345 12.0277 0.554372 12.0622C0.731398 12.1015 0.923176 12.1212 1.12971 12.1212C1.47884 12.1212 1.7493 12.0499 1.94108 11.9073C2.13777 11.7647 2.27546 11.5507 2.35414 11.2655C2.43282 10.9803 2.47216 10.6238 2.47216 10.196V0.21615H5.40047V9.94522C5.40047 11.027 5.23819 11.8925 4.91364 12.5416C4.5891 13.1907 4.13915 13.6603 3.56382 13.9504C2.98848 14.2406 2.32218 14.3856 1.5649 14.3856ZM7.73869 0.21615H11.5005C13.0593 0.21615 14.1706 0.447268 14.8345 0.909503C15.4983 1.37174 15.8303 2.03559 15.8303 2.90105C15.8303 3.37312 15.7442 3.77389 15.5721 4.10335C15.4049 4.43282 15.191 4.69344 14.9304 4.88522C14.6747 5.077 14.4116 5.20731 14.1411 5.27615V5.34991C14.4362 5.42367 14.7288 5.54661 15.0189 5.71872C15.3139 5.88591 15.5573 6.13915 15.7491 6.47845C15.9458 6.81284 16.0442 7.2677 16.0442 7.84303C16.0442 8.49705 15.877 9.06009 15.5426 9.53216C15.2131 10.0042 14.7411 10.3681 14.1264 10.6238C13.5117 10.8746 12.7815 11 11.9357 11H7.73869V0.21615ZM10.6522 4.35414H11.53C12.0119 4.35414 12.3512 4.25579 12.5479 4.0591C12.7446 3.85748 12.8429 3.61407 12.8429 3.32886C12.8429 3.03382 12.7298 2.81008 12.5036 2.65764C12.2824 2.50028 11.9381 2.4216 11.471 2.4216H10.6522V4.35414ZM10.6522 6.48583V8.75029H11.6775C12.184 8.75029 12.5381 8.64211 12.7397 8.42574C12.9413 8.20446 13.0421 7.92909 13.0421 7.59962C13.0421 7.40784 12.9978 7.22836 12.9093 7.06117C12.8257 6.88906 12.6807 6.75137 12.4741 6.6481C12.2676 6.53992 11.9824 6.48583 11.6185 6.48583H10.6522Z" fill="#A7AAAD"/>
</svg>
