<svg width="21" height="12" viewBox="0 0 21 12" fill="none" xmlns="http://www.w3.org/2000/svg">
<path d="M10.9077 0.562695L10.3766 10.5647L6.51152 10.9187L4.44621 5.56369L4.12166 11.022H0.80242L1.06796 0.562695L4.75601 0.385669L7.30814 5.69646L7.42615 0.680713L10.9077 0.562695ZM20.0983 8.51413C20.0983 8.92227 20.0221 9.27386 19.8696 9.56891C19.7221 9.86395 19.5229 10.1147 19.2722 10.3213C19.0214 10.5278 18.7312 10.6974 18.4018 10.8302C18.0772 10.9581 17.7379 11.0589 17.3839 11.1326C17.0298 11.2064 16.6733 11.2556 16.3143 11.2802C15.9603 11.3047 15.6284 11.317 15.3186 11.317C15.0137 11.317 14.6965 11.3047 14.3671 11.2802C14.0425 11.2605 13.718 11.2236 13.3934 11.1695C13.0689 11.1154 12.7492 11.0441 12.4345 10.9556C12.1198 10.8622 11.8223 10.7466 11.542 10.6089L11.5273 1.10853C11.8026 0.995426 12.0952 0.89462 12.405 0.806106C12.7148 0.712676 13.0295 0.636456 13.3492 0.577448C13.6737 0.513521 13.9958 0.466806 14.3154 0.437302C14.6351 0.40288 14.9449 0.385669 15.2448 0.385669C15.5939 0.385669 15.9455 0.407797 16.2996 0.452054C16.6586 0.496311 17.0028 0.570071 17.3322 0.673337C17.6617 0.776602 17.969 0.91183 18.2543 1.07902C18.5395 1.2413 18.7878 1.44291 18.9992 1.68386C19.2156 1.92481 19.3828 2.20511 19.5008 2.52474C19.6238 2.84437 19.6852 3.21317 19.6852 3.63115C19.6852 3.90652 19.6459 4.16469 19.5672 4.40564C19.4885 4.64659 19.3754 4.86296 19.2279 5.05474C19.0804 5.24652 18.9009 5.41125 18.6894 5.54894C18.478 5.6817 18.2395 5.78005 17.974 5.84398C18.2936 5.92757 18.5837 6.05051 18.8443 6.21278C19.1099 6.37506 19.3336 6.57175 19.5156 6.80287C19.7024 7.03399 19.845 7.29461 19.9434 7.58474C20.0466 7.87486 20.0983 8.18466 20.0983 8.51413ZM16.3512 4.30975C16.3512 4.16715 16.3217 4.04667 16.2627 3.94832C16.2037 3.84506 16.1299 3.76146 16.0414 3.69754C15.9578 3.63361 15.8644 3.58689 15.7611 3.55739C15.6628 3.52789 15.5743 3.51313 15.4956 3.51313C15.3973 3.51313 15.3014 3.52789 15.2079 3.55739C15.1145 3.58689 15.0235 3.62132 14.935 3.66065L14.8908 5.29815C15.0039 5.29815 15.144 5.28831 15.3112 5.26864C15.4784 5.24897 15.6382 5.20718 15.7906 5.14325C15.948 5.07441 16.0808 4.97606 16.189 4.84821C16.2971 4.71544 16.3512 4.53595 16.3512 4.30975ZM15.3038 6.71436C15.1612 6.71436 15.0235 6.72911 14.8908 6.75861L14.8613 8.44036C14.935 8.45512 15.0063 8.46987 15.0752 8.48462C15.1489 8.49446 15.2202 8.49937 15.2891 8.49937C15.3923 8.49937 15.5054 8.48954 15.6284 8.46987C15.7513 8.44528 15.8669 8.40102 15.975 8.3371C16.0832 8.26826 16.1717 8.17728 16.2406 8.06418C16.3143 7.95108 16.3512 7.8011 16.3512 7.61424C16.3512 7.42738 16.3143 7.27494 16.2406 7.15692C16.1717 7.03891 16.0857 6.94793 15.9824 6.88401C15.8792 6.81516 15.7661 6.77091 15.6431 6.75124C15.5202 6.72665 15.4071 6.71436 15.3038 6.71436Z" fill="#FBD53E"/>
</svg>
